<svg xmlns="http://www.w3.org/2000/svg" id="Camada_2" data-name="Camada 2" viewBox="0 0 534.6 152.96"><g id="Camada_1-2" data-name="Camada 1"><path d="m55.81,70.09c0-12.62,0-25.24,0-37.87,0-2.44-.13-4.88,0-7.32.28-5.13,1.83-9.8,5.02-13.96,2.75-3.57,5.91-6.53,10.05-8.36,3.97-1.76,8.12-2.49,12.49-2.48,17.2.02,34.4-.15,51.6-.1,4.72.01,8.93,1.86,12.91,4.44,4.2,2.72,7.17,6.35,8.86,10.96.85,2.3,1.52,4.82,1.55,7.25.17,11.16.08,22.33.11,33.5,0,2.91-1.05,5.29-3.56,6.7-1.35.76-3.04,1.31-4.58,1.32-11.04.11-22.08.15-33.12.01-4.46-.05-7.71-3.12-7.77-7.79-.14-9.33,0-18.66-.07-28-.02-2.53-.25-5.07-.59-7.58-.61-4.55-2.76-8.37-5.74-11.83-1.96-2.28-4.25-4.1-6.75-5.68-.76-.48-1.8-.67-2.72-.68-3.95-.03-7.91-.03-11.86.1-10.75.36-20.91,8.1-22.48,19.36-.52,3.76-.49,7.61-.53,11.42-.08,6.75-.02,13.5-.02,20.25,0,8.54,0,17.07,0,25.61,0,9.2-.06,18.4.03,27.6.06,5.73-1.33,11.03-4.72,15.6-1.7,2.3-4.11,4.07-6.18,6.1-.36.35-.66.77-.99,1.16.49.2.99.58,1.48.58,13.46.03,26.92.18,40.37-.03,9.37-.15,16.11-4.86,20.39-13.13,1.4-2.72,1.79-5.72,1.82-8.7.06-7.57-.09-15.15-.13-22.73-.03-4.95-.04-8.95,0-13.9,0-.22-.16-.54,1.35-.46,1.6.09,1.4-.33,1.38,1.29-.01,11.92-.1,23.83,0,35.75.04,4.58-1.17,8.72-3.54,12.54-3.76,6.06-8.91,10.28-16.12,11.54-1.63.28-3.31.37-4.97.38-21.25.03-42.5,0-63.74.03-7.73.01-14.1-2.99-19.1-8.73-2.67-3.06-4.35-6.68-5.19-10.78-.6-2.94-.67-5.85-.68-8.79-.02-9.21.11-18.42-.07-27.62-.08-4.09,2.95-7.81,7.18-8.09,3.35-.22,6.72-.13,10.09-.18,1.12-.02,2.24-.1,3.37-.1,4.36-.03,8.72-.1,13.07-.02,3.27.06,6.56.12,9.79.58,3.21.45,5.42,3.17,5.74,6.39.08.83.09,1.66.09,2.5,0,10,0,20,0,30,0,3.7,1.26,7.1,2.64,10.45.11.26.46.61.65.59.25-.03.53-.36.66-.63,1.2-2.53,2.21-5.17,2.25-7.99.14-10.87.19-21.73.26-32.6.02-2.62,0-5.25,0-7.87h.01Z"></path><path d="m117.28,111.62v-2.03c0-.58.47-1.05,1.05-1.05h9.33c.58,0,1.05.47,1.05,1.05v2.73c0,7.13,2.73,10.12,8.71,10.12s8.71-2.9,8.71-9.42v-40.04c0-.58.47-1.05,1.05-1.05h10.04c.58,0,1.05.47,1.05,1.05v39.25c0,13.55-6.42,20.77-20.06,20.77h-1.23c-12.23,0-19.71-4.58-19.71-21.38Z"></path><path d="m170.52,113.2v-.62h11.53v1.06c0,7.3,2.82,9.15,9.59,9.15,7.22,0,8.98-1.76,8.98-6.69,0-5.37-2.64-6.25-12.76-10.03-10.82-4.14-17.16-7.74-17.16-18.57s6.25-16.81,20.33-16.81h.7c13.99,0,20.59,6.16,20.59,19.27v.62h-9.8c-.91,0-1.64-.73-1.64-1.64v-.12c0-4.26-3.38-7.73-7.64-7.88-8.69-.31-10.76,1.37-10.76,6.04,0,4.93,3.61,6.07,12.76,9.24,11.62,4.14,17.34,7.66,17.34,19.1s-5.81,17.69-20.33,17.69h-1.32c-14.43,0-20.42-6.25-20.42-19.8Z"></path><path d="m224.29,73c0-.59.48-1.07,1.07-1.07h16.38c18.52,0,25.59,5.91,25.59,19.68s-7.07,19.68-25.59,19.68h-4.21c-.59,0-1.07.48-1.07,1.07v19.33c0,.59-.48,1.07-1.07,1.07h-10.03c-.59,0-1.07-.48-1.07-1.07v-58.7Zm18.88,26.84c8.68,0,11.81-2.06,11.81-8.23s-3.13-8.23-11.81-8.23h-5.64c-.59,0-1.07.48-1.07,1.07v14.32c0,.59.48,1.07,1.07,1.07h5.64Z"></path><path d="m287.52,72.12h4.23l.24.65,3.66,3.66,22.63,59.59h-3.91l-3.83-3.83h-.41l-6.11-16.04h-23.69l-7.65,19.86h-3.99l-3.74-3.83h-.65l23.2-60.08Zm-21.9,59.35h2.6l7.65-19.95h27.27l7.57,19.95h2.69l-22.23-58.53h-3.09l-22.47,58.53Zm11.23-22.39l12.78-32.97,12.54,32.97h-25.32Zm15.39-23.45l-8.79,22.63h17.5l-8.71-22.63Z"></path><path d="m319.83,72.12h4.15v.49l3.83,3.83v59.59h-3.66l-3.83-3.83h-.49v-60.08Zm.81,59.35h2.52v-58.45h-2.52v58.45Z"></path><path d="m367.12,134.08c-2.88,2.06-6.46,3.09-10.75,3.09-5.27,0-9.58-1.6-12.94-4.8l-2.2-2.04c-5.48-4.23-8.22-10.85-8.22-19.86,0-6.51,1.52-11.86,4.56-16.04,3.42-4.61,8.39-6.92,14.9-6.92s11.34,2.31,14.65,6.92l.49.49v-6.51h4.15v.49l3.83,3.83v40.46c0,5.48-.92,9.55-2.77,12.21-3.53,5.05-9.34,7.57-17.42,7.57-5.65,0-9.93-1.47-12.86-4.4l-2.28-2.28c-.11-.11-.19-.16-.24-.16-3.47-2.28-5.24-5.97-5.29-11.07h4.07v.49l3.83,3.83c.05.87.15,1.63.29,2.28.13.65.31,1.19.53,1.63,2.28,1.3,5.13,1.95,8.55,1.95,6.78,0,11.4-2.23,13.84-6.68.6-1.14,1.03-2.63,1.3-4.48Zm1.3-7.33c0,5.86-.62,9.9-1.87,12.13-2.66,4.77-7.52,7.16-14.57,7.16-8.85,0-13.51-3.39-14-10.18h-2.44c.05,4.18,1.71,7.38,4.97,9.61,2.82,1.9,6.43,2.85,10.83,2.85,7.92,0,13.57-2.44,16.93-7.33,1.79-2.61,2.69-6.54,2.69-11.8v-39.97h-2.52v9.44c-1.25-3.42-3.28-6-6.11-7.73-2.82-1.74-6.11-2.61-9.85-2.61-6.24,0-10.99,2.2-14.25,6.59-2.93,3.91-4.4,9.09-4.4,15.55s1.44,11.59,4.31,15.55c3.2,4.34,7.92,6.51,14.17,6.51,7.82,0,13.19-3.36,16.12-10.09v4.31Zm-3.66-2.52c-2.77,4.07-6.87,6.11-12.29,6.11s-9.55-2.03-12.37-6.11c-2.44-3.47-3.66-8.06-3.66-13.76s1.25-10.23,3.74-13.76c2.82-4.07,6.92-6.11,12.29-6.11s9.53,2.03,12.29,6.11c2.44,3.53,3.66,8.11,3.66,13.76s-1.22,10.29-3.66,13.76Zm-.65-27.03l-.16-.16c-2.01-1.19-4.48-1.79-7.41-1.79-5.26,0-9.23,1.98-11.89,5.94-2.39,3.53-3.58,7.98-3.58,13.35s.98,9.36,2.93,12.62c2.23,1.57,5.05,2.36,8.47,2.36,5.1,0,9.01-1.95,11.72-5.86,2.28-3.31,3.42-7.71,3.42-13.19s-1.17-9.9-3.5-13.27Z"></path><path d="m387.8,130.09c-1.36-.92-2.58-2.12-3.66-3.58-3.04-4.18-4.56-9.53-4.56-16.04s1.52-11.86,4.56-16.04c3.42-4.61,8.39-6.92,14.9-6.92s11.15,2.23,14.41,6.68l.73.73v-6.51h4.15v.49l3.83,3.83v43.31h-3.66l-3.09-3.09c-3.04,2.77-7.14,4.15-12.29,4.15-5.48,0-9.88-1.66-13.19-4.97l-2.12-2.04Zm27.19,1.38h2.52v-42.25h-2.52v9.69c-2.77-7.05-8.09-10.58-15.96-10.58-6.24,0-10.99,2.2-14.25,6.59-2.93,3.91-4.4,9.09-4.4,15.55s1.47,11.75,4.4,15.55c3.31,4.29,8.06,6.43,14.25,6.43,7.98,0,13.3-3.36,15.96-10.09v9.12Zm-28.25-34.76c2.82-4.07,6.92-6.11,12.29-6.11s9.53,2.03,12.29,6.11c2.44,3.53,3.66,8.11,3.66,13.76s-1.22,10.29-3.66,13.76c-2.77,4.07-6.87,6.11-12.29,6.11s-9.55-2.03-12.37-6.11c-2.44-3.47-3.66-8.06-3.66-13.76s1.25-10.23,3.74-13.76Zm3.83,30.45c2.23,1.57,5.05,2.36,8.47,2.36,5.1,0,9.01-1.95,11.72-5.86,2.28-3.31,3.42-7.71,3.42-13.19s-1.17-9.9-3.5-13.27l-.16-.16c-2.01-1.19-4.48-1.79-7.41-1.79-5.26,0-9.23,1.98-11.89,5.94-2.39,3.53-3.58,7.98-3.58,13.35s.98,9.36,2.93,12.62Z"></path><path d="m428.01,88.41h4.23v.49l2.36,2.36c2.61-1.79,6.08-2.69,10.42-2.69h2.03l-.33.41,3.91,3.91-2.44,3.42c-2.01,0-3.5.16-4.48.49-1.68.54-3.5,1.87-5.45,3.99-1.47,1.74-2.2,3.96-2.2,6.68v28.58h-3.74l-3.83-3.83h-.49v-43.8Zm.81,43.07h2.61v-28.09c0-2.5.73-4.8,2.2-6.92,1.47-2.12,3.42-3.55,5.86-4.31,1.03-.33,2.47-.49,4.31-.49l1.63-2.28c-7.16-.05-11.83,2.23-14,6.84v-7h-2.61v42.25Z"></path><path d="m452.58,88.41h4.31l.24.65,3.66,3.66,11.15,30.28,13.35-34.6h4.56l-.16.49,3.83,3.83-16.77,43.31h-3.75l-3.83-3.83h-.41l-16.2-43.8Zm16.77,43.07h2.93l16.28-42.25h-2.69l-15.06,39.24-14.49-39.24h-2.69l15.71,42.25Z"></path><path d="m529.23,121.7c0,.05-.03.11-.08.16l3.91,3.83c-1.25,3.2-3.09,5.75-5.54,7.65v.08c-3.09,2.44-6.84,3.66-11.23,3.66-5.1,0-9.2-1.55-12.29-4.64l-1.95-1.87c-.81-.54-1.57-1.17-2.28-1.87-.71-.71-1.36-1.49-1.95-2.36-2.88-4.29-4.31-9.58-4.31-15.88s1.47-11.8,4.4-15.87c3.31-4.72,8.09-7.08,14.33-7.08s11.02,2.14,14.17,6.43c.05.11.09.18.12.2.03.03.07.1.12.2l2.2,2.12c.38.44.87,1.01,1.47,1.71,2.88,3.69,4.31,8.68,4.31,14.98v2.12h-32.97v.08c0,4.61,1.03,8.6,3.09,11.97,2.12,1.47,4.61,2.2,7.49,2.2,6.4,0,10.88-3.31,13.43-9.93l3.66,1.95c-.05.05-.08.11-.08.16Zm-7.16,8.02c2.82-1.82,4.88-4.44,6.19-7.86l-2.12-1.14c-2.44,6.4-7.08,9.61-13.92,9.61-4.94,0-8.79-2.01-11.56-6.02-2.44-3.47-3.66-7.82-3.66-13.03v-.65h32.97v-1.55c0-6.13-1.41-11.02-4.23-14.65-3.09-4.07-7.6-6.11-13.51-6.11s-10.61,2.28-13.76,6.84c-2.77,4.02-4.15,9.12-4.15,15.31s1.36,11.45,4.07,15.31c3.15,4.45,7.76,6.68,13.84,6.68,3.74,0,7.03-.91,9.85-2.73Zm-24.99-21.45c.33-5.16,1.71-9.28,4.15-12.37,2.71-3.53,6.54-5.29,11.48-5.29s8.39,1.82,10.99,5.45c2.33,3.2,3.5,7.27,3.5,12.21h-30.12Zm5.29-.81h24.02c-.22-4.29-1.28-7.81-3.17-10.58-1.9-1.08-4.04-1.63-6.43-1.63-4.67,0-8.36,1.68-11.07,5.05h.08c-1.47,1.9-2.61,4.29-3.42,7.16Z"></path><g><path d="m379.57,152.56v-12.96h2.14v12.96h-2.14Z"></path><path d="m395.89,152.56l-8.41-11.04.05.89c.02.25.03.52.04.8,0,.28.01.53.01.74v8.61h-1.89v-12.96h2.45l8.52,11.15c-.02-.3-.04-.6-.07-.9-.02-.26-.03-.54-.05-.84-.01-.3-.02-.6-.02-.87v-8.53h1.92v12.96h-2.56Z"></path><path d="m404.32,141.03v4.82h8.78v1.45h-8.78v5.25h-2.12v-12.96h11.17v1.43h-9.05Z"></path><path d="m430.98,146.02c0,1.01-.18,1.93-.53,2.76-.35.83-.87,1.54-1.54,2.12-.67.59-1.49,1.04-2.46,1.36-.97.32-2.07.48-3.3.48-1.3,0-2.43-.17-3.4-.5-.97-.33-1.78-.8-2.43-1.4-.65-.6-1.14-1.31-1.46-2.13-.33-.82-.49-1.72-.49-2.69s.17-1.93.51-2.74c.34-.82.84-1.51,1.5-2.08.66-.57,1.48-1.01,2.45-1.32.97-.31,2.09-.46,3.35-.46s2.36.16,3.33.47c.97.31,1.78.76,2.44,1.33.66.58,1.16,1.27,1.5,2.09.34.82.52,1.72.52,2.72Zm-2.18,0c0-.78-.12-1.49-.37-2.12s-.6-1.18-1.08-1.64-1.06-.8-1.76-1.05-1.51-.37-2.42-.37-1.76.12-2.46.37c-.71.25-1.3.59-1.78,1.05s-.83,1-1.06,1.64c-.23.64-.35,1.35-.35,2.12s.12,1.49.36,2.14c.24.65.6,1.2,1.07,1.67.47.47,1.06.83,1.76,1.09.7.26,1.51.39,2.43.39.98,0,1.83-.13,2.54-.4.71-.26,1.3-.63,1.76-1.1.46-.47.8-1.03,1.02-1.68.22-.65.33-1.36.33-2.12Z"></path><path d="m445.05,152.56l-4.08-5.38h-4.9v5.38h-2.12v-12.96h7.39c.89,0,1.68.08,2.37.25.69.17,1.27.41,1.74.73.47.32.82.71,1.07,1.17.25.46.37.98.37,1.55,0,.41-.07.82-.22,1.21-.14.4-.37.76-.69,1.09-.31.33-.71.62-1.19.86-.48.24-1.06.41-1.74.51l4.46,5.58h-2.45Zm-.31-9.23c0-.39-.08-.73-.25-1.02-.16-.29-.4-.53-.71-.72-.31-.19-.69-.34-1.14-.43-.44-.09-.95-.14-1.52-.14h-5.05v4.78h5.14c.61,0,1.14-.06,1.59-.19s.82-.3,1.1-.52c.29-.22.5-.48.63-.78s.2-.63.2-.97Z"></path><path d="m463.8,152.56v-8.64c0-.31,0-.63.01-.96,0-.32.02-.62.03-.89.02-.31.04-.62.07-.91-.11.31-.22.62-.35.93l-.31.84c-.14.29-.28.56-.42.79l-4.06,8.85h-1.41l-4.05-8.85c-.05-.09-.1-.2-.14-.32l-.18-.39-.19-.42-.19-.41c-.13-.33-.25-.66-.37-1.01,0,.34.02.68.04,1.02.02.29.03.59.03.91,0,.32,0,.59,0,.83v8.65h-1.89v-12.96h2.79l4.13,9c.06.12.13.28.22.47.09.19.17.39.24.59.07.2.14.39.19.57.06.18.1.32.13.42.02-.1.07-.23.14-.41s.16-.36.24-.55l.25-.56c.03-.19.06-.35.09-.47l4.14-9.06h2.74v12.96h-1.92Z"></path><path d="m480.63,152.56l-1.76-3.79h-7.25l-1.76,3.79h-2.21l6.05-12.96h2.79l6.06,12.96h-1.92Zm-4.39-9.45c-.12-.25-.24-.49-.35-.75l-.32-.68-.24-.51c-.06-.13-.08-.22-.08-.25-.02.03-.06.11-.12.25-.06.14-.14.31-.23.51l-.32.69-.34.74-1.98,4.28h5.98l-1.99-4.29Zm-1.37-4.62v-.18l2.42-2.08h2.31v.27l-3.46,2h-1.28Z"></path><path d="m490.87,141.03v11.52h-2.11v-11.52h-5.4v-1.43h12.92v1.43h-5.4Z"></path><path d="m498.92,152.56v-12.96h2.14v12.96h-2.14Z"></path><path d="m512,140.84c-.89,0-1.68.12-2.37.37-.69.25-1.27.59-1.73,1.05-.46.45-.81,1-1.05,1.64-.24.64-.36,1.35-.36,2.12s.13,1.49.39,2.14c.26.65.63,1.2,1.1,1.67.48.47,1.06.83,1.76,1.09.7.26,1.48.39,2.35.39.61,0,1.16-.07,1.66-.2s.95-.32,1.36-.56c.41-.24.77-.52,1.09-.85.32-.33.6-.69.84-1.09l1.74.72c-.28.48-.63.94-1.05,1.35-.42.42-.91.78-1.47,1.09-.56.31-1.2.55-1.91.72-.71.17-1.5.26-2.38.26-1.27,0-2.38-.17-3.34-.5-.96-.33-1.76-.8-2.4-1.4-.64-.6-1.12-1.31-1.44-2.13s-.48-1.72-.48-2.69.17-1.93.51-2.74c.34-.82.83-1.51,1.48-2.08.65-.57,1.45-1.01,2.4-1.32.95-.31,2.04-.46,3.25-.46,1.67,0,3.07.27,4.19.81,1.12.54,1.95,1.34,2.48,2.4l-2.01.55c-.14-.31-.34-.6-.6-.88-.25-.28-.57-.53-.95-.74-.38-.21-.83-.39-1.33-.52-.51-.13-1.09-.19-1.74-.19Z"></path><path d="m532.68,152.56l-1.76-3.79h-7.25l-1.76,3.79h-2.21l6.05-12.96h2.79l6.06,12.96h-1.92Zm-4.39-9.45c-.12-.25-.24-.49-.35-.75l-.32-.68-.24-.51c-.06-.13-.08-.22-.08-.25-.02.03-.06.11-.12.25-.06.14-.14.31-.23.51l-.32.69-.34.74-1.98,4.28h5.98l-1.99-4.29Z"></path></g></g></svg>