<svg xmlns="http://www.w3.org/2000/svg" id="Camada_2" data-name="Camada 2" viewBox="0 0 287.2 196.79"><defs><style>      .cls-1 {        fill: #1c60ff;      }    </style></defs><g id="Camada_2-2" data-name="Camada 2"><g id="Camada_1-2" data-name="Camada 1-2"><path class="cls-1" d="m31.2,196.79c-9.86,0-17.53-3.26-23-9.8-5.46-6.53-8.2-15.8-8.2-27.8h256c9.87,0,17.54,3.27,23,9.8,5.46,6.54,8.2,15.8,8.2,27.8H31.2Z"></path><path class="cls-1" d="m31.2,117.19c-9.86,0-17.53-3.26-23-9.8-5.46-6.53-8.2-15.8-8.2-27.8h256c9.87,0,17.54,3.27,23,9.8,5.46,6.54,8.2,15.8,8.2,27.8H31.2Z"></path><path class="cls-1" d="m31.2,37.6c-9.86,0-17.53-3.26-23-9.8C2.74,21.27,0,12,0,0h256c9.87,0,17.54,3.27,23,9.8,5.46,6.54,8.2,15.8,8.2,27.8H31.2Z"></path></g></g></svg>